*********** **** **** *** ******** *********** **** *** **********
*+* +*+*+* *+*+*+ *+* *+* *+* *+* *+* *+*+* *+* *+*
+*+ +*+ +*+*+ +*+ +*+ +*+ +*+ +*+ *+*+*+ +*+ +*+
+$+ +$+ +*+ +$+ +$++*++$++* *$* +$+ +$+ +*+ +$+ +$++*++$
+$+ +$+ +$+ +$+ +$+ +$+ +$+$ +$+ +$+ +$+$+$ +$+
$+$ $+$ $+$ $+$ $+$ $+$ $+$ $+$ $+$ $+$+$ $+$
$$$$$$$$$$$ $$$ $$$ $$$ $$$ $$$$$$$$ $$$$$$$$$$$ $$$ $$$$ $$$$$$$$$$




Another Fine Release Brought to you from - IMAGiNE


********************************************************************************************************************
Chalet Girl 2011 R5 XViD - IMAGiNE
********************************************************************************************************************

Ripper ...........: IMAGiNE IMDB Rating.......: 5.8/10
Video Codec.......: XVID Release Date......: 11/05/11
Audio Codec.......: AC3 Theatre Date......: 17/02/11
Audio Bitrate.....: 448 Runtime.......: 1h 32mn
Subtitles.........: NIL Language..........: ENGLISH
Resolution......: 720x 384 IMDb URL..........: http://www.imdb.com/title/tt1487118/


DETAILS:

Video
ID : 0
Format : MPEG-4 Visual
Format profile : Advanced Simple@L5
Format settings, BVOP : 2
Format settings, QPel : No
Format settings, GMC : No warppoints
Format settings, Matrix : Default (MPEG)
Muxing mode : Packed bitstream
Codec ID : XVID
Codec ID/Hint : XviD
Duration : 1h 32mn
Bit rate : 1 659 Kbps
Width : 720 pixels
Height : 384 pixels
Display aspect ratio : 1.875
Frame rate : 25.000 fps
Color space : YUV
Chroma subsampling : 4:2:0
Bit depth : 8 bits
Scan type : Progressive
Compression mode : Lossy
Bits/(Pixel*Frame) : 0.240
Stream size : 1.07 GiB (78%)
Writing library : XviD 61

Audio
ID : 1
Format : AC-3
Format/Info : Audio Coding 3
Mode extension : CM (complete main)
Codec ID : 2000
Duration : 1h 32mn
Bit rate mode : Constant
Bit rate : 448 Kbps
Channel(s) : 6 channels
Channel positions : Front: L C R, Side: L R, LFE
Sampling rate : 48.0 KHz
Bit depth : 16 bits
Compression mode : Lossy
Stream size : 297 MiB (21%)
Alignment : Aligned on interleaves
Interleave, duration : 40 ms (1.00 video frame)
Interleave, preload duration : 512 ms



SOURCES:

VIDEO: Kak.vyjti.zamuzh.za.milliardera.2011.D.DVD.ELEKTRI4KA
AUDIO: Kak.vyjti.zamuzh.za.milliardera.2011.D.DVD.ELEKTRI4KA Thanx Matey

NOTES:

IMAGiNE bringing you another release..........
Chalet Girl......
Well here we are with our version, not too much to say
the source was nice so not much work was needed....
The usual crop resize sharpen yada yada
Audio is nice english studio we remuxed to our encode
Enjoy Folks!